<?xml version="1.0" standalone="no"?>
<!DOCTYPE svg PUBLIC "-//W3C//DTD SVG 20010904//EN"
 "http://www.w3.org/TR/2001/REC-SVG-20010904/DTD/svg10.dtd">
<svg version="1.0" xmlns="http://www.w3.org/2000/svg"
 width="700.000000pt" height="700.000000pt" viewBox="0 0 700.000000 700.000000"
 preserveAspectRatio="xMidYMid meet">
<metadata>
Created by potrace 1.14, written by Peter Selinger 2001-2017
</metadata>
<g transform="translate(0.000000,700.000000) scale(0.100000,-0.100000)"
fill="#000000" stroke="none">
<path d="M2597 6878 c-173 -22 -353 -151 -431 -310 -54 -109 -64 -158 -66
-335 0 -86 -3 -159 -5 -162 -2 -3 -353 -5 -782 -4 -867 3 -858 4 -996 -64 -95
-48 -208 -161 -255 -256 -66 -136 -63 -66 -60 -1460 l3 -1262 22 -58 c56 -147
156 -265 278 -329 114 -59 167 -70 347 -72 87 0 158 -3 159 -6 1 -3 2 -246 3
-540 1 -410 5 -540 15 -558 27 -51 106 -76 154 -50 21 10 152 115 187 148 19
18 74 65 250 210 74 62 146 122 160 133 14 12 106 89 205 172 99 82 182 152
185 155 3 3 27 23 54 45 27 21 61 49 75 62 14 12 31 26 36 31 6 4 62 50 125
102 l114 95 986 1 c542 1 1008 4 1037 8 225 28 420 201 483 428 l15 57 270
-225 c149 -124 288 -240 310 -258 22 -19 127 -106 233 -195 109 -90 203 -161
215 -162 72 -4 120 22 135 74 6 19 9 242 8 559 0 291 1 528 4 529 3 0 102 2
220 3 118 2 229 6 245 10 74 19 139 47 213 93 45 28 139 130 171 187 18 30 41
81 54 113 l22 58 3 1252 c3 1349 4 1325 -49 1439 -54 117 -142 212 -254 275
-140 77 10 72 -2130 73 -1051 1 -1936 -2 -1968 -6z"/>
<path d="M3116 1628 c-49 -10 -101 -49 -123 -91 -16 -29 -17 -88 -17 -662 0
-699 -3 -666 66 -719 91 -68 213 -41 266 59 14 27 16 102 17 650 1 678 2 662
-57 722 -34 33 -103 52 -152 41z"/>
<path d="M5393 1629 c-64 -13 -116 -59 -134 -119 -6 -23 -9 -250 -7 -656 l3
-621 28 -40 c53 -76 57 -77 496 -77 353 1 389 2 421 19 86 45 121 136 85 222
-19 46 -41 70 -80 91 -25 14 -73 17 -305 18 -151 1 -281 3 -287 3 -10 1 -13
31 -13 116 l0 115 160 0 c88 0 161 -1 163 -1 1 -1 21 8 44 20 127 64 129 247
3 311 -35 18 -58 20 -205 20 l-165 0 0 118 0 117 288 0 c283 0 287 0 325 23
20 13 49 44 63 68 50 85 15 192 -75 236 -43 21 -56 22 -412 22 -203 1 -381 -2
-396 -5z"/>
<path d="M1615 1614 c-43 -22 -64 -43 -82 -83 -15 -31 -17 -99 -18 -630 0
-328 3 -616 7 -640 10 -55 46 -103 95 -126 35 -17 75 -19 473 -20 244 0 448 4
465 9 123 38 168 192 82 284 -52 56 -56 56 -407 58 -179 1 -334 2 -345 3 -20
1 -20 8 -19 503 0 277 -3 517 -8 535 -11 40 -51 89 -89 108 -37 20 -116 19
-154 -1z"/>
<path d="M3755 1602 c-48 -33 -78 -89 -78 -146 1 -62 473 -1239 516 -1283 33
-35 84 -56 129 -55 47 1 113 37 136 73 11 19 84 194 162 389 77 195 145 364
150 375 5 11 41 101 80 200 39 99 79 196 87 215 57 125 -22 260 -152 260 -61
0 -111 -24 -140 -69 -13 -20 -83 -184 -155 -366 -72 -181 -135 -339 -140 -350
-5 -11 -14 -33 -20 -49 -6 -16 -12 -27 -14 -25 -2 2 -27 63 -55 134 -29 72
-56 139 -61 150 -5 11 -32 79 -60 150 -28 72 -57 144 -64 160 -7 17 -26 63
-42 103 -30 80 -73 134 -117 151 -52 20 -118 13 -162 -17z"/>
</g>
</svg>
